<mxfile host="app.diagrams.net" agent="Mozilla/5.0 (Windows NT 10.0; Win64; x64) AppleWebKit/537.36 (KHTML, like Gecko) Chrome/131.0.0.0 Safari/537.36 Edg/131.0.0.0" version="25.0.3">
  <diagram name="Page-1" id="-OHtlgGl6GRk3NAxg_4F">
    <mxGraphModel dx="2453" dy="1969" grid="1" gridSize="10" guides="1" tooltips="1" connect="1" arrows="1" fold="1" page="1" pageScale="1" pageWidth="850" pageHeight="1100" math="0" shadow="0">
      <root>
        <mxCell id="0" />
        <mxCell id="1" parent="0" />
        <mxCell id="59oR__EmF50malT1DPrW-1" value="" style="edgeStyle=orthogonalEdgeStyle;rounded=0;orthogonalLoop=1;jettySize=auto;html=1;" edge="1" parent="1" source="59oR__EmF50malT1DPrW-2">
          <mxGeometry relative="1" as="geometry">
            <mxPoint x="-561" y="-980" as="targetPoint" />
          </mxGeometry>
        </mxCell>
        <mxCell id="59oR__EmF50malT1DPrW-2" value="&lt;font data-font-src=&quot;https://fonts.googleapis.com/css?family=Sarabun&quot; face=&quot;Sarabun&quot;&gt;Start&lt;/font&gt;" style="ellipse;whiteSpace=wrap;html=1;" vertex="1" parent="1">
          <mxGeometry x="-624.5000000000001" y="-1040" width="130" height="30" as="geometry" />
        </mxCell>
        <mxCell id="59oR__EmF50malT1DPrW-3" value="" style="edgeStyle=orthogonalEdgeStyle;rounded=0;orthogonalLoop=1;jettySize=auto;html=1;" edge="1" parent="1" source="59oR__EmF50malT1DPrW-4" target="59oR__EmF50malT1DPrW-5">
          <mxGeometry relative="1" as="geometry" />
        </mxCell>
        <mxCell id="59oR__EmF50malT1DPrW-4" value="เปิดไฟล์&amp;nbsp;b15-10.txt&amp;nbsp;&lt;span style=&quot;color: rgba(0, 0, 0, 0); font-family: monospace; font-size: 0px; text-align: start; text-wrap-mode: nowrap;&quot;&gt;%3CmxGraphModel%3E%3Croot%3E%3CmxCell%20id%3D%220%22%2F%3E%3CmxCell%20id%3D%221%22%20parent%3D%220%22%2F%3E%3CmxCell%20id%3D%222%22%20value%3D%22%E0%B8%81%E0%B8%B3%E0%B8%AB%E0%B8%99%E0%B8%94%E0%B8%95%E0%B8%B1%E0%B8%A7%E0%B9%81%E0%B8%9B%E0%B8%A3%20arr%22%20style%3D%22rounded%3D0%3BwhiteSpace%3Dwrap%3Bhtml%3D1%3B%22%20vertex%3D%221%22%20parent%3D%221%22%3E%3CmxGeometry%20x%3D%22-680%22%20y%3D%22-980%22%20width%3D%22160%22%20height%3D%2240%22%20as%3D%22geometry%22%2F%3E%3C%2FmxCell%3E%3C%2Froot%3E%3C%2FmxGraphModel%3E&lt;/span&gt;" style="rounded=0;whiteSpace=wrap;html=1;" vertex="1" parent="1">
          <mxGeometry x="-639.5" y="-910" width="160" height="40" as="geometry" />
        </mxCell>
        <mxCell id="59oR__EmF50malT1DPrW-5" value="เปิดได้หรือไม่" style="rhombus;whiteSpace=wrap;html=1;" vertex="1" parent="1">
          <mxGeometry x="-623.5" y="-840" width="127" height="80" as="geometry" />
        </mxCell>
        <mxCell id="59oR__EmF50malT1DPrW-6" value="T" style="text;html=1;align=center;verticalAlign=middle;resizable=0;points=[];autosize=1;strokeColor=none;fillColor=none;" vertex="1" parent="1">
          <mxGeometry x="-549.5" y="-770" width="30" height="30" as="geometry" />
        </mxCell>
        <mxCell id="59oR__EmF50malT1DPrW-7" value="F" style="text;html=1;align=center;verticalAlign=middle;resizable=0;points=[];autosize=1;strokeColor=none;fillColor=none;" vertex="1" parent="1">
          <mxGeometry x="-499.5" y="-830" width="30" height="30" as="geometry" />
        </mxCell>
        <mxCell id="59oR__EmF50malT1DPrW-8" value="" style="edgeStyle=orthogonalEdgeStyle;rounded=0;orthogonalLoop=1;jettySize=auto;html=1;" edge="1" parent="1">
          <mxGeometry relative="1" as="geometry">
            <mxPoint x="-559.5" y="-760" as="sourcePoint" />
            <mxPoint x="-559.5" y="-720" as="targetPoint" />
          </mxGeometry>
        </mxCell>
        <mxCell id="59oR__EmF50malT1DPrW-23" value="กำหนดตัวแปร&amp;nbsp;Matrix2" style="rounded=0;whiteSpace=wrap;html=1;" vertex="1" parent="1">
          <mxGeometry x="-634.5" y="-640" width="160" height="40" as="geometry" />
        </mxCell>
        <mxCell id="59oR__EmF50malT1DPrW-24" value="กำหนดตัวแปร Matrix1" style="rounded=0;whiteSpace=wrap;html=1;" vertex="1" parent="1">
          <mxGeometry x="-636.5" y="-720" width="160" height="40" as="geometry" />
        </mxCell>
        <mxCell id="59oR__EmF50malT1DPrW-25" value="" style="edgeStyle=orthogonalEdgeStyle;rounded=0;orthogonalLoop=1;jettySize=auto;html=1;" edge="1" parent="1" source="59oR__EmF50malT1DPrW-24">
          <mxGeometry relative="1" as="geometry">
            <mxPoint x="-556.5" y="-640" as="targetPoint" />
          </mxGeometry>
        </mxCell>
        <mxCell id="59oR__EmF50malT1DPrW-31" style="edgeStyle=orthogonalEdgeStyle;rounded=0;orthogonalLoop=1;jettySize=auto;html=1;entryX=0.5;entryY=0;entryDx=0;entryDy=0;" edge="1" parent="1" source="59oR__EmF50malT1DPrW-29" target="59oR__EmF50malT1DPrW-4">
          <mxGeometry relative="1" as="geometry" />
        </mxCell>
        <mxCell id="59oR__EmF50malT1DPrW-29" value="เปิดไฟล์&amp;nbsp;a15-10.txt&amp;nbsp;&lt;span style=&quot;color: rgba(0, 0, 0, 0); font-family: monospace; font-size: 0px; text-align: start; text-wrap-mode: nowrap;&quot;&gt;%3CmxGraphModel%3E%3Croot%3E%3CmxCell%20id%3D%220%22%2F%3E%3CmxCell%20id%3D%221%22%20parent%3D%220%22%2F%3E%3CmxCell%20id%3D%222%22%20value%3D%22%E0%B8%81%E0%B8%B3%E0%B8%AB%E0%B8%99%E0%B8%94%E0%B8%95%E0%B8%B1%E0%B8%A7%E0%B9%81%E0%B8%9B%E0%B8%A3%20arr%22%20style%3D%22rounded%3D0%3BwhiteSpace%3Dwrap%3Bhtml%3D1%3B%22%20vertex%3D%221%22%20parent%3D%221%22%3E%3CmxGeometry%20x%3D%22-680%22%20y%3D%22-980%22%20width%3D%22160%22%20height%3D%2240%22%20as%3D%22geometry%22%2F%3E%3C%2FmxCell%3E%3C%2Froot%3E%3C%2FmxGraphModel%3E&lt;/span&gt;" style="rounded=0;whiteSpace=wrap;html=1;" vertex="1" parent="1">
          <mxGeometry x="-640" y="-980" width="160" height="40" as="geometry" />
        </mxCell>
        <mxCell id="59oR__EmF50malT1DPrW-109" value="" style="edgeStyle=orthogonalEdgeStyle;rounded=0;orthogonalLoop=1;jettySize=auto;html=1;" edge="1" parent="1" source="59oR__EmF50malT1DPrW-32" target="59oR__EmF50malT1DPrW-108">
          <mxGeometry relative="1" as="geometry" />
        </mxCell>
        <mxCell id="59oR__EmF50malT1DPrW-32" value="กำหนดตัวแปร&amp;nbsp;Matrix3" style="rounded=0;whiteSpace=wrap;html=1;" vertex="1" parent="1">
          <mxGeometry x="-634.5" y="-560" width="160" height="40" as="geometry" />
        </mxCell>
        <mxCell id="59oR__EmF50malT1DPrW-33" value="" style="edgeStyle=orthogonalEdgeStyle;rounded=0;orthogonalLoop=1;jettySize=auto;html=1;" edge="1" parent="1">
          <mxGeometry relative="1" as="geometry">
            <mxPoint x="-556.5" y="-560" as="targetPoint" />
            <mxPoint x="-556.5" y="-600" as="sourcePoint" />
          </mxGeometry>
        </mxCell>
        <mxCell id="59oR__EmF50malT1DPrW-38" value="" style="edgeStyle=orthogonalEdgeStyle;rounded=0;orthogonalLoop=1;jettySize=auto;html=1;" edge="1" parent="1" source="59oR__EmF50malT1DPrW-34" target="59oR__EmF50malT1DPrW-35">
          <mxGeometry relative="1" as="geometry" />
        </mxCell>
        <mxCell id="59oR__EmF50malT1DPrW-34" value="Start scan" style="shape=process;whiteSpace=wrap;html=1;backgroundOutline=1;" vertex="1" parent="1">
          <mxGeometry x="-170" y="-1040" width="120" height="60" as="geometry" />
        </mxCell>
        <mxCell id="59oR__EmF50malT1DPrW-39" value="" style="edgeStyle=orthogonalEdgeStyle;rounded=0;orthogonalLoop=1;jettySize=auto;html=1;" edge="1" parent="1" source="59oR__EmF50malT1DPrW-35" target="59oR__EmF50malT1DPrW-36">
          <mxGeometry relative="1" as="geometry" />
        </mxCell>
        <mxCell id="59oR__EmF50malT1DPrW-35" value="กำหนดตัวแปร j" style="rounded=0;whiteSpace=wrap;html=1;" vertex="1" parent="1">
          <mxGeometry x="-190.25" y="-947.5" width="160" height="40" as="geometry" />
        </mxCell>
        <mxCell id="59oR__EmF50malT1DPrW-36" value="กำหนดตัวแปร num" style="rounded=0;whiteSpace=wrap;html=1;" vertex="1" parent="1">
          <mxGeometry x="-190" y="-870" width="160" height="40" as="geometry" />
        </mxCell>
        <mxCell id="59oR__EmF50malT1DPrW-40" value="" style="edgeStyle=orthogonalEdgeStyle;rounded=0;orthogonalLoop=1;jettySize=auto;html=1;" edge="1" target="59oR__EmF50malT1DPrW-41" parent="1">
          <mxGeometry relative="1" as="geometry">
            <mxPoint x="-110.25" y="-830" as="sourcePoint" />
          </mxGeometry>
        </mxCell>
        <mxCell id="59oR__EmF50malT1DPrW-69" value="" style="edgeStyle=orthogonalEdgeStyle;rounded=0;orthogonalLoop=1;jettySize=auto;html=1;" edge="1" parent="1" source="59oR__EmF50malT1DPrW-41" target="59oR__EmF50malT1DPrW-68">
          <mxGeometry relative="1" as="geometry" />
        </mxCell>
        <mxCell id="59oR__EmF50malT1DPrW-41" value="กำหนดตัวแปร ch" style="rounded=0;whiteSpace=wrap;html=1;" vertex="1" parent="1">
          <mxGeometry x="-190.25" y="-793" width="160" height="40" as="geometry" />
        </mxCell>
        <mxCell id="59oR__EmF50malT1DPrW-46" value="" style="edgeStyle=orthogonalEdgeStyle;rounded=0;orthogonalLoop=1;jettySize=auto;html=1;" edge="1" parent="1" source="59oR__EmF50malT1DPrW-42" target="59oR__EmF50malT1DPrW-45">
          <mxGeometry relative="1" as="geometry" />
        </mxCell>
        <mxCell id="59oR__EmF50malT1DPrW-42" value="อ่านไฟล์จาก fp" style="rounded=0;whiteSpace=wrap;html=1;" vertex="1" parent="1">
          <mxGeometry x="-190" y="-660" width="160" height="40" as="geometry" />
        </mxCell>
        <mxCell id="59oR__EmF50malT1DPrW-49" value="" style="edgeStyle=orthogonalEdgeStyle;rounded=0;orthogonalLoop=1;jettySize=auto;html=1;" edge="1" parent="1" source="59oR__EmF50malT1DPrW-44" target="59oR__EmF50malT1DPrW-48">
          <mxGeometry relative="1" as="geometry" />
        </mxCell>
        <mxCell id="59oR__EmF50malT1DPrW-53" value="" style="edgeStyle=orthogonalEdgeStyle;rounded=0;orthogonalLoop=1;jettySize=auto;html=1;" edge="1" parent="1" source="59oR__EmF50malT1DPrW-44" target="59oR__EmF50malT1DPrW-52">
          <mxGeometry relative="1" as="geometry" />
        </mxCell>
        <mxCell id="59oR__EmF50malT1DPrW-44" value="เป็นเลข 0 - 9 หรือไม่" style="rhombus;whiteSpace=wrap;html=1;" vertex="1" parent="1">
          <mxGeometry x="-161.68" y="-520" width="102.86" height="90" as="geometry" />
        </mxCell>
        <mxCell id="59oR__EmF50malT1DPrW-47" value="" style="edgeStyle=orthogonalEdgeStyle;rounded=0;orthogonalLoop=1;jettySize=auto;html=1;" edge="1" parent="1" source="59oR__EmF50malT1DPrW-45" target="59oR__EmF50malT1DPrW-44">
          <mxGeometry relative="1" as="geometry" />
        </mxCell>
        <mxCell id="59oR__EmF50malT1DPrW-45" value="อ่านทีละตัว" style="rounded=0;whiteSpace=wrap;html=1;" vertex="1" parent="1">
          <mxGeometry x="-190" y="-590" width="160" height="40" as="geometry" />
        </mxCell>
        <mxCell id="59oR__EmF50malT1DPrW-51" value="" style="edgeStyle=orthogonalEdgeStyle;rounded=0;orthogonalLoop=1;jettySize=auto;html=1;" edge="1" parent="1" source="59oR__EmF50malT1DPrW-48" target="59oR__EmF50malT1DPrW-50">
          <mxGeometry relative="1" as="geometry" />
        </mxCell>
        <mxCell id="59oR__EmF50malT1DPrW-48" value="แปลงเป็นตัวเลข" style="rounded=0;whiteSpace=wrap;html=1;" vertex="1" parent="1">
          <mxGeometry x="50" y="-495" width="160" height="40" as="geometry" />
        </mxCell>
        <mxCell id="59oR__EmF50malT1DPrW-75" style="edgeStyle=orthogonalEdgeStyle;rounded=0;orthogonalLoop=1;jettySize=auto;html=1;entryX=0.5;entryY=0;entryDx=0;entryDy=0;" edge="1" parent="1" source="59oR__EmF50malT1DPrW-50" target="59oR__EmF50malT1DPrW-74">
          <mxGeometry relative="1" as="geometry" />
        </mxCell>
        <mxCell id="59oR__EmF50malT1DPrW-50" value="เก็บไว้ใน Num" style="rounded=0;whiteSpace=wrap;html=1;" vertex="1" parent="1">
          <mxGeometry x="260" y="-495" width="160" height="40" as="geometry" />
        </mxCell>
        <mxCell id="59oR__EmF50malT1DPrW-55" value="" style="edgeStyle=orthogonalEdgeStyle;rounded=0;orthogonalLoop=1;jettySize=auto;html=1;" edge="1" parent="1" source="59oR__EmF50malT1DPrW-52" target="59oR__EmF50malT1DPrW-54">
          <mxGeometry relative="1" as="geometry" />
        </mxCell>
        <mxCell id="59oR__EmF50malT1DPrW-76" style="edgeStyle=orthogonalEdgeStyle;rounded=0;orthogonalLoop=1;jettySize=auto;html=1;entryX=0;entryY=0.5;entryDx=0;entryDy=0;" edge="1" parent="1" source="59oR__EmF50malT1DPrW-52" target="59oR__EmF50malT1DPrW-74">
          <mxGeometry relative="1" as="geometry" />
        </mxCell>
        <mxCell id="59oR__EmF50malT1DPrW-52" value="เป็น เว้นวรรค Tab หรือ Enter หรือไม่" style="rhombus;whiteSpace=wrap;html=1;" vertex="1" parent="1">
          <mxGeometry x="-161.68" y="-370" width="102.86" height="80" as="geometry" />
        </mxCell>
        <mxCell id="59oR__EmF50malT1DPrW-57" value="" style="edgeStyle=orthogonalEdgeStyle;rounded=0;orthogonalLoop=1;jettySize=auto;html=1;" edge="1" parent="1" source="59oR__EmF50malT1DPrW-54" target="59oR__EmF50malT1DPrW-56">
          <mxGeometry relative="1" as="geometry" />
        </mxCell>
        <mxCell id="59oR__EmF50malT1DPrW-62" value="" style="edgeStyle=orthogonalEdgeStyle;rounded=0;orthogonalLoop=1;jettySize=auto;html=1;" edge="1" parent="1" source="59oR__EmF50malT1DPrW-54" target="59oR__EmF50malT1DPrW-61">
          <mxGeometry relative="1" as="geometry" />
        </mxCell>
        <mxCell id="59oR__EmF50malT1DPrW-54" value="เป็น เว้นวรรค&amp;nbsp; หรือไม่" style="rhombus;whiteSpace=wrap;html=1;" vertex="1" parent="1">
          <mxGeometry x="-161.43" y="-230" width="102.86" height="80" as="geometry" />
        </mxCell>
        <mxCell id="59oR__EmF50malT1DPrW-59" value="" style="edgeStyle=orthogonalEdgeStyle;rounded=0;orthogonalLoop=1;jettySize=auto;html=1;" edge="1" parent="1" source="59oR__EmF50malT1DPrW-56" target="59oR__EmF50malT1DPrW-58">
          <mxGeometry relative="1" as="geometry" />
        </mxCell>
        <mxCell id="59oR__EmF50malT1DPrW-56" value="เพิ่ม Row" style="rounded=0;whiteSpace=wrap;html=1;" vertex="1" parent="1">
          <mxGeometry x="50" y="-210" width="160" height="40" as="geometry" />
        </mxCell>
        <mxCell id="59oR__EmF50malT1DPrW-83" value="" style="edgeStyle=orthogonalEdgeStyle;rounded=0;orthogonalLoop=1;jettySize=auto;html=1;" edge="1" parent="1" source="59oR__EmF50malT1DPrW-58" target="59oR__EmF50malT1DPrW-80">
          <mxGeometry relative="1" as="geometry" />
        </mxCell>
        <mxCell id="59oR__EmF50malT1DPrW-58" value="Rst COl" style="rounded=0;whiteSpace=wrap;html=1;" vertex="1" parent="1">
          <mxGeometry x="260" y="-210" width="160" height="40" as="geometry" />
        </mxCell>
        <mxCell id="59oR__EmF50malT1DPrW-66" value="" style="edgeStyle=orthogonalEdgeStyle;rounded=0;orthogonalLoop=1;jettySize=auto;html=1;" edge="1" parent="1" source="59oR__EmF50malT1DPrW-61" target="59oR__EmF50malT1DPrW-63">
          <mxGeometry relative="1" as="geometry" />
        </mxCell>
        <mxCell id="59oR__EmF50malT1DPrW-78" value="" style="edgeStyle=orthogonalEdgeStyle;rounded=0;orthogonalLoop=1;jettySize=auto;html=1;" edge="1" parent="1" source="59oR__EmF50malT1DPrW-61" target="59oR__EmF50malT1DPrW-77">
          <mxGeometry relative="1" as="geometry" />
        </mxCell>
        <mxCell id="59oR__EmF50malT1DPrW-61" value="Num ไม่ใช่ 0&amp;nbsp;" style="rhombus;whiteSpace=wrap;html=1;" vertex="1" parent="1">
          <mxGeometry x="-161.68" y="-50" width="102.86" height="80" as="geometry" />
        </mxCell>
        <mxCell id="59oR__EmF50malT1DPrW-67" value="" style="edgeStyle=orthogonalEdgeStyle;rounded=0;orthogonalLoop=1;jettySize=auto;html=1;" edge="1" parent="1" source="59oR__EmF50malT1DPrW-63" target="59oR__EmF50malT1DPrW-65">
          <mxGeometry relative="1" as="geometry" />
        </mxCell>
        <mxCell id="59oR__EmF50malT1DPrW-63" value="เก็บไว่ใน Matrix 3" style="rounded=0;whiteSpace=wrap;html=1;" vertex="1" parent="1">
          <mxGeometry x="49.75" y="-30" width="160" height="40" as="geometry" />
        </mxCell>
        <mxCell id="59oR__EmF50malT1DPrW-82" value="" style="edgeStyle=orthogonalEdgeStyle;rounded=0;orthogonalLoop=1;jettySize=auto;html=1;" edge="1" parent="1" source="59oR__EmF50malT1DPrW-65" target="59oR__EmF50malT1DPrW-81">
          <mxGeometry relative="1" as="geometry" />
        </mxCell>
        <mxCell id="59oR__EmF50malT1DPrW-65" value="เพิ่ม COl" style="rounded=0;whiteSpace=wrap;html=1;" vertex="1" parent="1">
          <mxGeometry x="250" y="-30" width="160" height="40" as="geometry" />
        </mxCell>
        <mxCell id="59oR__EmF50malT1DPrW-71" style="edgeStyle=orthogonalEdgeStyle;rounded=0;orthogonalLoop=1;jettySize=auto;html=1;entryX=0.5;entryY=0;entryDx=0;entryDy=0;" edge="1" parent="1" source="59oR__EmF50malT1DPrW-68" target="59oR__EmF50malT1DPrW-42">
          <mxGeometry relative="1" as="geometry" />
        </mxCell>
        <mxCell id="59oR__EmF50malT1DPrW-68" value="" style="ellipse;whiteSpace=wrap;html=1;aspect=fixed;" vertex="1" parent="1">
          <mxGeometry x="-125.25" y="-720" width="30" height="30" as="geometry" />
        </mxCell>
        <mxCell id="59oR__EmF50malT1DPrW-89" style="edgeStyle=orthogonalEdgeStyle;rounded=0;orthogonalLoop=1;jettySize=auto;html=1;entryX=0;entryY=0.5;entryDx=0;entryDy=0;" edge="1" parent="1" source="59oR__EmF50malT1DPrW-72" target="59oR__EmF50malT1DPrW-68">
          <mxGeometry relative="1" as="geometry">
            <Array as="points">
              <mxPoint x="-260" y="200" />
              <mxPoint x="-260" y="-705" />
            </Array>
          </mxGeometry>
        </mxCell>
        <mxCell id="59oR__EmF50malT1DPrW-104" value="" style="edgeStyle=orthogonalEdgeStyle;rounded=0;orthogonalLoop=1;jettySize=auto;html=1;" edge="1" parent="1" source="59oR__EmF50malT1DPrW-72" target="59oR__EmF50malT1DPrW-102">
          <mxGeometry relative="1" as="geometry" />
        </mxCell>
        <mxCell id="59oR__EmF50malT1DPrW-72" value="อ่านครบแล้วหรือไม่" style="rhombus;whiteSpace=wrap;html=1;" vertex="1" parent="1">
          <mxGeometry x="-161.43" y="160" width="102.86" height="80" as="geometry" />
        </mxCell>
        <mxCell id="59oR__EmF50malT1DPrW-84" value="" style="edgeStyle=orthogonalEdgeStyle;rounded=0;orthogonalLoop=1;jettySize=auto;html=1;" edge="1" parent="1" source="59oR__EmF50malT1DPrW-74" target="59oR__EmF50malT1DPrW-80">
          <mxGeometry relative="1" as="geometry" />
        </mxCell>
        <mxCell id="59oR__EmF50malT1DPrW-74" value="" style="ellipse;whiteSpace=wrap;html=1;aspect=fixed;" vertex="1" parent="1">
          <mxGeometry x="480" y="-345" width="30" height="30" as="geometry" />
        </mxCell>
        <mxCell id="59oR__EmF50malT1DPrW-79" value="" style="edgeStyle=orthogonalEdgeStyle;rounded=0;orthogonalLoop=1;jettySize=auto;html=1;" edge="1" parent="1" source="59oR__EmF50malT1DPrW-77" target="59oR__EmF50malT1DPrW-72">
          <mxGeometry relative="1" as="geometry" />
        </mxCell>
        <mxCell id="59oR__EmF50malT1DPrW-77" value="" style="ellipse;whiteSpace=wrap;html=1;aspect=fixed;" vertex="1" parent="1">
          <mxGeometry x="-125" y="80" width="30" height="30" as="geometry" />
        </mxCell>
        <mxCell id="59oR__EmF50malT1DPrW-87" style="edgeStyle=orthogonalEdgeStyle;rounded=0;orthogonalLoop=1;jettySize=auto;html=1;entryX=0.5;entryY=0;entryDx=0;entryDy=0;" edge="1" parent="1" source="59oR__EmF50malT1DPrW-80" target="59oR__EmF50malT1DPrW-81">
          <mxGeometry relative="1" as="geometry" />
        </mxCell>
        <mxCell id="59oR__EmF50malT1DPrW-80" value="" style="ellipse;whiteSpace=wrap;html=1;aspect=fixed;" vertex="1" parent="1">
          <mxGeometry x="480" y="-205" width="30" height="30" as="geometry" />
        </mxCell>
        <mxCell id="59oR__EmF50malT1DPrW-88" style="edgeStyle=orthogonalEdgeStyle;rounded=0;orthogonalLoop=1;jettySize=auto;html=1;entryX=1;entryY=0.5;entryDx=0;entryDy=0;" edge="1" parent="1" source="59oR__EmF50malT1DPrW-81" target="59oR__EmF50malT1DPrW-77">
          <mxGeometry relative="1" as="geometry">
            <Array as="points">
              <mxPoint x="495" y="95" />
            </Array>
          </mxGeometry>
        </mxCell>
        <mxCell id="59oR__EmF50malT1DPrW-81" value="" style="ellipse;whiteSpace=wrap;html=1;aspect=fixed;" vertex="1" parent="1">
          <mxGeometry x="480" y="-25" width="30" height="30" as="geometry" />
        </mxCell>
        <mxCell id="59oR__EmF50malT1DPrW-90" value="T" style="text;html=1;align=center;verticalAlign=middle;resizable=0;points=[];autosize=1;strokeColor=none;fillColor=none;" vertex="1" parent="1">
          <mxGeometry x="-60" y="-510" width="30" height="30" as="geometry" />
        </mxCell>
        <mxCell id="59oR__EmF50malT1DPrW-91" value="F" style="text;html=1;align=center;verticalAlign=middle;resizable=0;points=[];autosize=1;strokeColor=none;fillColor=none;" vertex="1" parent="1">
          <mxGeometry x="-100" y="-440" width="30" height="30" as="geometry" />
        </mxCell>
        <mxCell id="59oR__EmF50malT1DPrW-92" value="T" style="text;html=1;align=center;verticalAlign=middle;resizable=0;points=[];autosize=1;strokeColor=none;fillColor=none;" vertex="1" parent="1">
          <mxGeometry x="-110" y="-290" width="30" height="30" as="geometry" />
        </mxCell>
        <mxCell id="59oR__EmF50malT1DPrW-93" value="F" style="text;html=1;align=center;verticalAlign=middle;resizable=0;points=[];autosize=1;strokeColor=none;fillColor=none;" vertex="1" parent="1">
          <mxGeometry x="-58.56999999999999" y="-360" width="30" height="30" as="geometry" />
        </mxCell>
        <mxCell id="59oR__EmF50malT1DPrW-94" value="T" style="text;html=1;align=center;verticalAlign=middle;resizable=0;points=[];autosize=1;strokeColor=none;fillColor=none;" vertex="1" parent="1">
          <mxGeometry x="-58.81999999999999" y="-220" width="30" height="30" as="geometry" />
        </mxCell>
        <mxCell id="59oR__EmF50malT1DPrW-95" value="F" style="text;html=1;align=center;verticalAlign=middle;resizable=0;points=[];autosize=1;strokeColor=none;fillColor=none;" vertex="1" parent="1">
          <mxGeometry x="-110" y="-150" width="30" height="30" as="geometry" />
        </mxCell>
        <mxCell id="59oR__EmF50malT1DPrW-96" value="T" style="text;html=1;align=center;verticalAlign=middle;resizable=0;points=[];autosize=1;strokeColor=none;fillColor=none;" vertex="1" parent="1">
          <mxGeometry x="-60.25" y="-40" width="30" height="30" as="geometry" />
        </mxCell>
        <mxCell id="59oR__EmF50malT1DPrW-97" value="F" style="text;html=1;align=center;verticalAlign=middle;resizable=0;points=[];autosize=1;strokeColor=none;fillColor=none;" vertex="1" parent="1">
          <mxGeometry x="-110" y="30" width="30" height="30" as="geometry" />
        </mxCell>
        <mxCell id="59oR__EmF50malT1DPrW-105" value="" style="edgeStyle=orthogonalEdgeStyle;rounded=0;orthogonalLoop=1;jettySize=auto;html=1;" edge="1" parent="1" source="59oR__EmF50malT1DPrW-102" target="59oR__EmF50malT1DPrW-103">
          <mxGeometry relative="1" as="geometry" />
        </mxCell>
        <mxCell id="59oR__EmF50malT1DPrW-102" value="เก็บไว่ใน Matrix 3" style="rounded=0;whiteSpace=wrap;html=1;" vertex="1" parent="1">
          <mxGeometry x="-190.25" y="280" width="160" height="40" as="geometry" />
        </mxCell>
        <mxCell id="59oR__EmF50malT1DPrW-107" value="" style="edgeStyle=orthogonalEdgeStyle;rounded=0;orthogonalLoop=1;jettySize=auto;html=1;" edge="1" parent="1" source="59oR__EmF50malT1DPrW-103">
          <mxGeometry relative="1" as="geometry">
            <mxPoint x="-110.25" y="440" as="targetPoint" />
          </mxGeometry>
        </mxCell>
        <mxCell id="59oR__EmF50malT1DPrW-103" value="เพิ่ม COl" style="rounded=0;whiteSpace=wrap;html=1;" vertex="1" parent="1">
          <mxGeometry x="-190.25" y="360" width="160" height="40" as="geometry" />
        </mxCell>
        <mxCell id="59oR__EmF50malT1DPrW-106" value="End scan" style="shape=process;whiteSpace=wrap;html=1;backgroundOutline=1;" vertex="1" parent="1">
          <mxGeometry x="-180.25" y="590" width="120" height="60" as="geometry" />
        </mxCell>
        <mxCell id="59oR__EmF50malT1DPrW-125" value="" style="edgeStyle=orthogonalEdgeStyle;rounded=0;orthogonalLoop=1;jettySize=auto;html=1;" edge="1" parent="1" source="59oR__EmF50malT1DPrW-108" target="59oR__EmF50malT1DPrW-124">
          <mxGeometry relative="1" as="geometry" />
        </mxCell>
        <mxCell id="59oR__EmF50malT1DPrW-108" value="Start scan&lt;div&gt;(&lt;span style=&quot;background-color: initial;&quot;&gt;a15-10&lt;/span&gt;&lt;span style=&quot;background-color: initial;&quot;&gt;)&lt;/span&gt;&lt;/div&gt;" style="shape=process;whiteSpace=wrap;html=1;backgroundOutline=1;" vertex="1" parent="1">
          <mxGeometry x="-614.5" y="-490" width="120" height="60" as="geometry" />
        </mxCell>
        <mxCell id="59oR__EmF50malT1DPrW-112" value="" style="edgeStyle=orthogonalEdgeStyle;rounded=0;orthogonalLoop=1;jettySize=auto;html=1;" edge="1" parent="1" source="59oR__EmF50malT1DPrW-110">
          <mxGeometry relative="1" as="geometry">
            <mxPoint x="710" y="-950" as="targetPoint" />
          </mxGeometry>
        </mxCell>
        <mxCell id="59oR__EmF50malT1DPrW-110" value="Start Convert" style="shape=process;whiteSpace=wrap;html=1;backgroundOutline=1;" vertex="1" parent="1">
          <mxGeometry x="650" y="-1060" width="120" height="60" as="geometry" />
        </mxCell>
        <mxCell id="59oR__EmF50malT1DPrW-117" value="" style="edgeStyle=orthogonalEdgeStyle;rounded=0;orthogonalLoop=1;jettySize=auto;html=1;" edge="1" parent="1" source="59oR__EmF50malT1DPrW-111" target="59oR__EmF50malT1DPrW-114">
          <mxGeometry relative="1" as="geometry" />
        </mxCell>
        <mxCell id="59oR__EmF50malT1DPrW-111" value="Matrix = Matrix3" style="rounded=0;whiteSpace=wrap;html=1;" vertex="1" parent="1">
          <mxGeometry x="630" y="-790" width="160" height="40" as="geometry" />
        </mxCell>
        <mxCell id="59oR__EmF50malT1DPrW-121" style="edgeStyle=orthogonalEdgeStyle;rounded=0;orthogonalLoop=1;jettySize=auto;html=1;entryX=0;entryY=0.5;entryDx=0;entryDy=0;" edge="1" parent="1" source="59oR__EmF50malT1DPrW-113" target="59oR__EmF50malT1DPrW-119">
          <mxGeometry relative="1" as="geometry">
            <Array as="points">
              <mxPoint x="560" y="-580" />
              <mxPoint x="560" y="-935" />
            </Array>
          </mxGeometry>
        </mxCell>
        <mxCell id="59oR__EmF50malT1DPrW-123" value="" style="edgeStyle=orthogonalEdgeStyle;rounded=0;orthogonalLoop=1;jettySize=auto;html=1;" edge="1" parent="1" source="59oR__EmF50malT1DPrW-113" target="59oR__EmF50malT1DPrW-122">
          <mxGeometry relative="1" as="geometry" />
        </mxCell>
        <mxCell id="59oR__EmF50malT1DPrW-113" value="ครบทุกตัวแล้วหรือไม่" style="rhombus;whiteSpace=wrap;html=1;" vertex="1" parent="1">
          <mxGeometry x="650" y="-620" width="120" height="80" as="geometry" />
        </mxCell>
        <mxCell id="59oR__EmF50malT1DPrW-118" value="" style="edgeStyle=orthogonalEdgeStyle;rounded=0;orthogonalLoop=1;jettySize=auto;html=1;" edge="1" parent="1" source="59oR__EmF50malT1DPrW-114" target="59oR__EmF50malT1DPrW-113">
          <mxGeometry relative="1" as="geometry" />
        </mxCell>
        <mxCell id="59oR__EmF50malT1DPrW-114" value="ปริ้นค่า Matrix" style="rounded=0;whiteSpace=wrap;html=1;shape=parallelogram;perimeter=parallelogramPerimeter;fixedSize=1;" vertex="1" parent="1">
          <mxGeometry x="630" y="-700" width="160" height="40" as="geometry" />
        </mxCell>
        <mxCell id="59oR__EmF50malT1DPrW-116" value="" style="edgeStyle=orthogonalEdgeStyle;rounded=0;orthogonalLoop=1;jettySize=auto;html=1;" edge="1" parent="1" source="59oR__EmF50malT1DPrW-115" target="59oR__EmF50malT1DPrW-111">
          <mxGeometry relative="1" as="geometry" />
        </mxCell>
        <mxCell id="59oR__EmF50malT1DPrW-115" value="Rst Rol" style="rounded=0;whiteSpace=wrap;html=1;" vertex="1" parent="1">
          <mxGeometry x="630" y="-880" width="160" height="40" as="geometry" />
        </mxCell>
        <mxCell id="59oR__EmF50malT1DPrW-120" value="" style="edgeStyle=orthogonalEdgeStyle;rounded=0;orthogonalLoop=1;jettySize=auto;html=1;" edge="1" parent="1" source="59oR__EmF50malT1DPrW-119" target="59oR__EmF50malT1DPrW-115">
          <mxGeometry relative="1" as="geometry" />
        </mxCell>
        <mxCell id="59oR__EmF50malT1DPrW-119" value="" style="ellipse;whiteSpace=wrap;html=1;aspect=fixed;" vertex="1" parent="1">
          <mxGeometry x="695" y="-950" width="30" height="30" as="geometry" />
        </mxCell>
        <mxCell id="59oR__EmF50malT1DPrW-122" value="End Convert" style="shape=process;whiteSpace=wrap;html=1;backgroundOutline=1;" vertex="1" parent="1">
          <mxGeometry x="650" y="-490" width="120" height="60" as="geometry" />
        </mxCell>
        <mxCell id="59oR__EmF50malT1DPrW-124" value="Start Convert&lt;div&gt;(&lt;span style=&quot;background-color: initial;&quot;&gt;Matrix1)&lt;/span&gt;&lt;/div&gt;" style="shape=process;whiteSpace=wrap;html=1;backgroundOutline=1;" vertex="1" parent="1">
          <mxGeometry x="-614.5" y="-395" width="120" height="60" as="geometry" />
        </mxCell>
        <mxCell id="59oR__EmF50malT1DPrW-126" value="" style="edgeStyle=orthogonalEdgeStyle;rounded=0;orthogonalLoop=1;jettySize=auto;html=1;" edge="1" target="59oR__EmF50malT1DPrW-128" parent="1">
          <mxGeometry relative="1" as="geometry">
            <mxPoint x="-555" y="-335" as="sourcePoint" />
          </mxGeometry>
        </mxCell>
        <mxCell id="59oR__EmF50malT1DPrW-127" value="" style="edgeStyle=orthogonalEdgeStyle;rounded=0;orthogonalLoop=1;jettySize=auto;html=1;" edge="1" source="59oR__EmF50malT1DPrW-128" target="59oR__EmF50malT1DPrW-129" parent="1">
          <mxGeometry relative="1" as="geometry" />
        </mxCell>
        <mxCell id="59oR__EmF50malT1DPrW-128" value="Start scan&lt;div&gt;(&lt;span style=&quot;background-color: initial;&quot;&gt;b15-10&lt;/span&gt;&lt;span style=&quot;background-color: initial;&quot;&gt;)&lt;/span&gt;&lt;/div&gt;" style="shape=process;whiteSpace=wrap;html=1;backgroundOutline=1;" vertex="1" parent="1">
          <mxGeometry x="-614.5" y="-305" width="120" height="60" as="geometry" />
        </mxCell>
        <mxCell id="59oR__EmF50malT1DPrW-129" value="Start Convert&lt;div&gt;(&lt;span style=&quot;background-color: initial;&quot;&gt;Matrix2)&lt;/span&gt;&lt;/div&gt;" style="shape=process;whiteSpace=wrap;html=1;backgroundOutline=1;" vertex="1" parent="1">
          <mxGeometry x="-614.5" y="-210" width="120" height="60" as="geometry" />
        </mxCell>
        <mxCell id="59oR__EmF50malT1DPrW-134" value="" style="edgeStyle=orthogonalEdgeStyle;rounded=0;orthogonalLoop=1;jettySize=auto;html=1;" edge="1" parent="1" source="59oR__EmF50malT1DPrW-130" target="59oR__EmF50malT1DPrW-133">
          <mxGeometry relative="1" as="geometry" />
        </mxCell>
        <mxCell id="59oR__EmF50malT1DPrW-130" value="Start multiply" style="shape=process;whiteSpace=wrap;html=1;backgroundOutline=1;" vertex="1" parent="1">
          <mxGeometry x="1140" y="-1067.5" width="120" height="60" as="geometry" />
        </mxCell>
        <mxCell id="59oR__EmF50malT1DPrW-135" value="" style="edgeStyle=orthogonalEdgeStyle;rounded=0;orthogonalLoop=1;jettySize=auto;html=1;" edge="1" parent="1" source="59oR__EmF50malT1DPrW-131" target="59oR__EmF50malT1DPrW-132">
          <mxGeometry relative="1" as="geometry" />
        </mxCell>
        <mxCell id="59oR__EmF50malT1DPrW-131" value="Matrix4 = Matrix1 * Matrix2&amp;nbsp;" style="rounded=0;whiteSpace=wrap;html=1;" vertex="1" parent="1">
          <mxGeometry x="1120" y="-850" width="160" height="40" as="geometry" />
        </mxCell>
        <mxCell id="59oR__EmF50malT1DPrW-143" value="" style="edgeStyle=orthogonalEdgeStyle;rounded=0;orthogonalLoop=1;jettySize=auto;html=1;" edge="1" parent="1" source="59oR__EmF50malT1DPrW-132" target="59oR__EmF50malT1DPrW-142">
          <mxGeometry relative="1" as="geometry" />
        </mxCell>
        <mxCell id="59oR__EmF50malT1DPrW-132" value="ปริ้นค่า Matrix4&amp;nbsp;" style="rounded=0;whiteSpace=wrap;html=1;shape=parallelogram;perimeter=parallelogramPerimeter;fixedSize=1;" vertex="1" parent="1">
          <mxGeometry x="1120" y="-780" width="160" height="40" as="geometry" />
        </mxCell>
        <mxCell id="59oR__EmF50malT1DPrW-137" value="" style="edgeStyle=orthogonalEdgeStyle;rounded=0;orthogonalLoop=1;jettySize=auto;html=1;" edge="1" parent="1" source="59oR__EmF50malT1DPrW-133" target="59oR__EmF50malT1DPrW-136">
          <mxGeometry relative="1" as="geometry" />
        </mxCell>
        <mxCell id="59oR__EmF50malT1DPrW-133" value="กำหนดตัวแปร Matrix4" style="rounded=0;whiteSpace=wrap;html=1;" vertex="1" parent="1">
          <mxGeometry x="1120" y="-977.5" width="160" height="40" as="geometry" />
        </mxCell>
        <mxCell id="59oR__EmF50malT1DPrW-140" style="edgeStyle=orthogonalEdgeStyle;rounded=0;orthogonalLoop=1;jettySize=auto;html=1;entryX=0.5;entryY=0;entryDx=0;entryDy=0;" edge="1" parent="1" source="59oR__EmF50malT1DPrW-136" target="59oR__EmF50malT1DPrW-131">
          <mxGeometry relative="1" as="geometry" />
        </mxCell>
        <mxCell id="59oR__EmF50malT1DPrW-136" value="" style="ellipse;whiteSpace=wrap;html=1;aspect=fixed;" vertex="1" parent="1">
          <mxGeometry x="1185" y="-915" width="30" height="30" as="geometry" />
        </mxCell>
        <mxCell id="59oR__EmF50malT1DPrW-145" value="" style="edgeStyle=orthogonalEdgeStyle;rounded=0;orthogonalLoop=1;jettySize=auto;html=1;" edge="1" parent="1" source="59oR__EmF50malT1DPrW-142" target="59oR__EmF50malT1DPrW-144">
          <mxGeometry relative="1" as="geometry" />
        </mxCell>
        <mxCell id="59oR__EmF50malT1DPrW-150" value="" style="edgeStyle=orthogonalEdgeStyle;rounded=0;orthogonalLoop=1;jettySize=auto;html=1;" edge="1" parent="1" source="59oR__EmF50malT1DPrW-142" target="59oR__EmF50malT1DPrW-149">
          <mxGeometry relative="1" as="geometry" />
        </mxCell>
        <mxCell id="59oR__EmF50malT1DPrW-142" value="คูณครบทุกตัวแล้วหรือไม่" style="rhombus;whiteSpace=wrap;html=1;" vertex="1" parent="1">
          <mxGeometry x="1140" y="-700" width="120" height="80" as="geometry" />
        </mxCell>
        <mxCell id="59oR__EmF50malT1DPrW-148" style="edgeStyle=orthogonalEdgeStyle;rounded=0;orthogonalLoop=1;jettySize=auto;html=1;entryX=0;entryY=0.5;entryDx=0;entryDy=0;" edge="1" parent="1" source="59oR__EmF50malT1DPrW-144" target="59oR__EmF50malT1DPrW-136">
          <mxGeometry relative="1" as="geometry">
            <Array as="points">
              <mxPoint x="930" y="-660" />
              <mxPoint x="930" y="-900" />
            </Array>
          </mxGeometry>
        </mxCell>
        <mxCell id="59oR__EmF50malT1DPrW-144" value="ขยับไปช่องถัดไป" style="rounded=0;whiteSpace=wrap;html=1;" vertex="1" parent="1">
          <mxGeometry x="950" y="-680" width="160" height="40" as="geometry" />
        </mxCell>
        <mxCell id="59oR__EmF50malT1DPrW-146" value="T" style="text;html=1;align=center;verticalAlign=middle;resizable=0;points=[];autosize=1;strokeColor=none;fillColor=none;" vertex="1" parent="1">
          <mxGeometry x="1230" y="-640" width="30" height="30" as="geometry" />
        </mxCell>
        <mxCell id="59oR__EmF50malT1DPrW-147" value="F" style="text;html=1;align=center;verticalAlign=middle;resizable=0;points=[];autosize=1;strokeColor=none;fillColor=none;" vertex="1" parent="1">
          <mxGeometry x="1120" y="-695" width="30" height="30" as="geometry" />
        </mxCell>
        <mxCell id="59oR__EmF50malT1DPrW-149" value="End multiply" style="shape=process;whiteSpace=wrap;html=1;backgroundOutline=1;" vertex="1" parent="1">
          <mxGeometry x="1140" y="-580" width="120" height="60" as="geometry" />
        </mxCell>
      </root>
    </mxGraphModel>
  </diagram>
</mxfile>
